<svg width="16" height="16" viewBox="0 0 16 16" fill="none" xmlns="http://www.w3.org/2000/svg">
<path d="M8.16159 0.788086C7.65483 0.788086 7.25666 1.18626 7.25666 1.69302C7.25666 2.19978 7.65483 2.59795 8.16159 2.59795C8.66835 2.59795 9.06652 2.19978 9.06652 1.69302C9.06652 1.18626 8.66835 0.788086 8.16159 0.788086ZM3.63692 2.59795C3.13016 2.59795 2.73199 2.99612 2.73199 3.50289C2.73199 4.00965 3.13016 4.40782 3.63692 4.40782C4.14368 4.40782 4.54185 4.00965 4.54185 3.50289C4.54185 2.99612 4.14368 2.59795 3.63692 2.59795ZM12.6863 2.59795C12.1795 2.59795 11.7813 2.99612 11.7813 3.50289C11.7813 4.00965 12.1795 4.40782 12.6863 4.40782C13.193 4.40782 13.5912 4.00965 13.5912 3.50289C13.5912 2.99612 13.193 2.59795 12.6863 2.59795ZM8.16159 4.40782C6.17074 4.40782 4.54185 6.0367 4.54185 8.02756C4.54185 10.0184 6.17074 11.6473 8.16159 11.6473C10.1524 11.6473 11.7813 10.0184 11.7813 8.02756C11.7813 6.0367 10.1524 4.40782 8.16159 4.40782ZM1.82705 7.12262C1.32029 7.12262 0.922119 7.52079 0.922119 8.02756C0.922119 8.53432 1.32029 8.93249 1.82705 8.93249C2.33382 8.93249 2.73199 8.53432 2.73199 8.02756C2.73199 7.52079 2.33382 7.12262 1.82705 7.12262ZM14.4961 7.12262C13.9894 7.12262 13.5912 7.52079 13.5912 8.02756C13.5912 8.53432 13.9894 8.93249 14.4961 8.93249C15.0029 8.93249 15.4011 8.53432 15.4011 8.02756C15.4011 7.52079 15.0029 7.12262 14.4961 7.12262ZM3.63692 11.6473C3.13016 11.6473 2.73199 12.0455 2.73199 12.5522C2.73199 13.059 3.13016 13.4572 3.63692 13.4572C4.14368 13.4572 4.54185 13.059 4.54185 12.5522C4.54185 12.0455 4.14368 11.6473 3.63692 11.6473ZM12.6863 11.6473C12.1795 11.6473 11.7813 12.0455 11.7813 12.5522C11.7813 13.059 12.1795 13.4572 12.6863 13.4572C13.193 13.4572 13.5912 13.059 13.5912 12.5522C13.5912 12.0455 13.193 11.6473 12.6863 11.6473ZM8.16159 13.4572C7.65483 13.4572 7.25666 13.8553 7.25666 14.3621C7.25666 14.8689 7.65483 15.267 8.16159 15.267C8.66835 15.267 9.06652 14.8689 9.06652 14.3621C9.06652 13.8553 8.66835 13.4572 8.16159 13.4572Z" fill="#F2F4FF"/>
</svg>
