<svg width="24" height="25" viewBox="0 0 24 25" fill="none" xmlns="http://www.w3.org/2000/svg">
<path d="M20 12.7036H10.5M18 15.7036L21 12.7036L18 9.70358M13 7.70358V6.70358C13 6.17314 12.7893 5.66443 12.4142 5.28936C12.0391 4.91429 11.5304 4.70358 11 4.70358H6C5.46957 4.70358 4.96086 4.91429 4.58579 5.28936C4.21071 5.66443 4 6.17314 4 6.70358V18.7036C4 19.234 4.21071 19.7427 4.58579 20.1178C4.96086 20.4929 5.46957 20.7036 6 20.7036H11C11.5304 20.7036 12.0391 20.4929 12.4142 20.1178C12.7893 19.7427 13 19.234 13 18.7036V17.7036" stroke="#F2F4FF" stroke-width="2.048" stroke-linecap="round" stroke-linejoin="round"/>
</svg>
