<svg width="29" height="29" viewBox="0 0 29 29" fill="none" xmlns="http://www.w3.org/2000/svg">
<g clip-path="url(#clip0_65_85)">
<path fill-rule="evenodd" clip-rule="evenodd" d="M14.6158 0.725098C22.348 0.725098 28.6158 7.151 28.6158 15.0792C28.6158 21.4198 24.609 26.7986 19.0496 28.6984C18.3398 28.8398 18.0878 28.3916 18.0878 28.0094C18.0878 27.5362 18.1046 25.9906 18.1046 24.0698C18.1046 22.7314 17.6566 21.8579 17.154 21.4127C20.2718 21.0571 23.5478 19.8432 23.5478 14.33C23.5478 12.762 23.0046 11.4824 22.1058 10.4772C22.2514 10.1146 22.7316 8.65463 21.9686 6.67783C21.9686 6.67783 20.7954 6.29321 18.1228 8.14961C17.0042 7.83181 15.8058 7.67191 14.6158 7.66631C13.4258 7.67191 12.2288 7.83181 11.1116 8.14961C8.43625 6.29321 7.26025 6.67783 7.26025 6.67783C6.50005 8.65463 6.98025 10.1146 7.12445 10.4772C6.22985 11.4824 5.68245 12.762 5.68245 14.33C5.68245 19.8292 8.95145 21.0617 12.0608 21.4243C11.6604 21.7827 11.2978 22.415 11.1718 23.3432C10.3738 23.71 8.34664 24.3448 7.09784 22.151C7.09784 22.151 6.35724 20.7718 4.95164 20.671C4.95164 20.671 3.58664 20.6529 4.85644 21.5433C4.85644 21.5433 5.77344 21.9843 6.41044 23.6433C6.41044 23.6433 7.23225 26.2052 11.127 25.3372C11.134 26.537 11.1466 27.6678 11.1466 28.0094C11.1466 28.3888 10.889 28.8328 10.1904 28.6998C4.62684 26.8028 0.615845 21.4212 0.615845 15.0792C0.615845 7.151 6.88505 0.725098 14.6158 0.725098Z" fill="#F2F4FF"/>
</g>
<defs>
<clipPath id="clip0_65_85">
<rect width="28" height="28" fill="white" transform="translate(0.615845 0.725098)"/>
</clipPath>
</defs>
</svg>
