<svg width="31" height="31" viewBox="0 0 31 31" fill="none" xmlns="http://www.w3.org/2000/svg">
<g clip-path="url(#clip0_65_77)">
<path d="M7.49084 8.9751C8.52638 8.9751 9.36584 8.13564 9.36584 7.1001C9.36584 6.06456 8.52638 5.2251 7.49084 5.2251C6.45531 5.2251 5.61584 6.06456 5.61584 7.1001C5.61584 8.13564 6.45531 8.9751 7.49084 8.9751Z" fill="#0C1618"/>
<path d="M5.61584 11.4751C5.61584 10.7847 6.17549 10.2251 6.86584 10.2251H8.11584C8.80619 10.2251 9.36584 10.7847 9.36584 11.4751V21.4751C9.36584 22.1655 8.80619 22.7251 8.11584 22.7251H6.86584C6.17549 22.7251 5.61584 22.1655 5.61584 21.4751V11.4751Z" fill="#0C1618"/>
<path d="M13.1158 22.7251H14.3658C15.0562 22.7251 15.6158 22.1655 15.6158 21.4751V15.8501C15.6158 13.9751 19.3658 12.7251 19.3658 15.2251V21.4756C19.3658 22.166 19.9255 22.7251 20.6158 22.7251H21.8658C22.5562 22.7251 23.1158 22.1655 23.1158 21.4751V13.9751C23.1158 11.4751 21.2408 10.2251 18.7408 10.2251C16.2408 10.2251 15.6158 12.1001 15.6158 12.1001V11.4751C15.6158 10.7847 15.0562 10.2251 14.3658 10.2251H13.1158C12.4255 10.2251 11.8658 10.7847 11.8658 11.4751V21.4751C11.8658 22.1655 12.4255 22.7251 13.1158 22.7251Z" fill="#0C1618"/>
<path fill-rule="evenodd" clip-rule="evenodd" d="M24.3658 0.225098C26.437 0.225098 28.1158 1.90404 28.1158 3.9751V23.9751C28.1158 26.0462 26.437 27.7251 24.3658 27.7251H4.36584C2.29478 27.7251 0.615845 26.0462 0.615845 23.9751V3.9751C0.615845 1.90404 2.29478 0.225098 4.36584 0.225098H24.3658ZM24.3658 2.7251C25.0562 2.7251 25.6158 3.28475 25.6158 3.9751V23.9751C25.6158 24.6655 25.0562 25.2251 24.3658 25.2251H4.36584C3.67549 25.2251 3.11584 24.6655 3.11584 23.9751V3.9751C3.11584 3.28475 3.67549 2.7251 4.36584 2.7251H24.3658Z" fill="#0C1618"/>
</g>
<defs>
<clipPath id="clip0_65_77">
<rect width="30" height="30" fill="white" transform="translate(0.615845 0.225098)"/>
</clipPath>
</defs>
</svg>
